<svg width="223" height="99" viewBox="0 0 223 99" fill="none" xmlns="http://www.w3.org/2000/svg">
<ellipse cx="179.5" cy="58.5" rx="43.5" ry="32.5" fill="#FFF8F8"/>
<ellipse cx="36" cy="59" rx="36" ry="32" fill="#FFF8F8"/>
<ellipse cx="103.5" cy="49" rx="70.5" ry="49" fill="#FFF8F8"/>
<path d="M95.625 46.625C103.083 46.5417 106.833 43.2083 106.875 36.625V23.625H93.75V31.3125H98.125V37.4375C98.0417 37.9792 97.75 38.2708 97.25 38.3125H88.6875C88.1458 38.2292 87.8542 37.9375 87.8125 37.4375V14.875C87.8958 14.3333 88.1875 14.0417 88.6875 14H106.062V5.6875H89.6875C82.2292 5.77083 78.4792 9.10417 78.4375 15.6875V36.625C78.5208 43.25 82.2708 46.5833 89.6875 46.625H95.625ZM127.25 22.25C127.792 22.3333 128.083 22.625 128.125 23.125V38.25C128.042 38.7917 127.75 39.0833 127.25 39.125H122C121.458 39.0417 121.167 38.75 121.125 38.25V23.125C121.208 22.5833 121.5 22.2917 122 22.25H127.25ZM112.188 37.25C112.188 41.875 113.917 44.75 117.375 45.875C118.875 46.375 120.688 46.625 122.812 46.625H126.438C131.812 46.625 135.125 45 136.375 41.75C136.833 40.5 137.062 39 137.062 37.25V24.125C137.062 19.5 135.333 16.625 131.875 15.5C130.417 15 128.604 14.75 126.438 14.75H122.812C117.438 14.75 114.125 16.375 112.875 19.625C112.417 20.875 112.188 22.375 112.188 24.125V37.25Z" fill="#FFFCFC"/>
<path d="M95.625 46.625V48.625H95.6362L95.6473 48.6249L95.625 46.625ZM106.875 36.625L108.875 36.6377V36.625H106.875ZM106.875 23.625H108.875V21.625H106.875V23.625ZM93.75 23.625V21.625H91.75V23.625H93.75ZM93.75 31.3125H91.75V33.3125H93.75V31.3125ZM98.125 31.3125H100.125V29.3125H98.125V31.3125ZM98.125 37.4375L100.102 37.7416L100.125 37.5904V37.4375H98.125ZM97.25 38.3125V40.3125H97.3332L97.4161 40.3056L97.25 38.3125ZM88.6875 38.3125L88.3834 40.2892L88.5346 40.3125H88.6875V38.3125ZM87.8125 37.4375H85.8125V37.5207L85.8194 37.6036L87.8125 37.4375ZM87.8125 14.875L85.8358 14.5709L85.8125 14.7221V14.875H87.8125ZM88.6875 14V12H88.6043L88.5214 12.0069L88.6875 14ZM106.062 14V16H108.062V14H106.062ZM106.062 5.6875H108.062V3.6875H106.062V5.6875ZM89.6875 5.6875V3.6875H89.6763L89.6652 3.68762L89.6875 5.6875ZM78.4375 15.6875L76.4375 15.6748V15.6875H78.4375ZM78.4375 36.625H76.4375V36.6376L76.4377 36.6502L78.4375 36.625ZM89.6875 46.625L89.6763 48.625H89.6875V46.625ZM95.6473 48.6249C99.6306 48.5804 102.985 47.6688 105.36 45.5573C107.781 43.4055 108.852 40.3092 108.875 36.6377L104.875 36.6123C104.857 39.5241 104.032 41.3861 102.703 42.5677C101.328 43.7895 99.0777 44.5863 95.6027 44.6251L95.6473 48.6249ZM108.875 36.625V23.625H104.875V36.625H108.875ZM106.875 21.625H93.75V25.625H106.875V21.625ZM91.75 23.625V31.3125H95.75V23.625H91.75ZM93.75 33.3125H98.125V29.3125H93.75V33.3125ZM96.125 31.3125V37.4375H100.125V31.3125H96.125ZM96.1483 37.1334C96.1502 37.1208 96.1895 36.8884 96.4295 36.6483C96.6865 36.3914 96.9686 36.329 97.0839 36.3194L97.4161 40.3056C98.0314 40.2543 98.7094 40.0253 99.258 39.4767C99.7897 38.945 100.016 38.2959 100.102 37.7416L96.1483 37.1334ZM97.25 36.3125H88.6875V40.3125H97.25V36.3125ZM88.9916 36.3358C89.0042 36.3377 89.2366 36.377 89.4767 36.617C89.7336 36.874 89.796 37.1561 89.8056 37.2714L85.8194 37.6036C85.8707 38.2189 86.0997 38.8969 86.6483 39.4455C87.18 39.9772 87.8291 40.204 88.3834 40.2892L88.9916 36.3358ZM89.8125 37.4375V14.875H85.8125V37.4375H89.8125ZM89.7892 15.1791C89.7873 15.1917 89.748 15.4241 89.508 15.6642C89.251 15.9211 88.9689 15.9835 88.8536 15.9931L88.5214 12.0069C87.9061 12.0582 87.2281 12.2872 86.6795 12.8358C86.1478 13.3675 85.921 14.0166 85.8358 14.5709L89.7892 15.1791ZM88.6875 16H106.062V12H88.6875V16ZM108.062 14V5.6875H104.062V14H108.062ZM106.062 3.6875H89.6875V7.6875H106.062V3.6875ZM89.6652 3.68762C85.6819 3.73213 82.3279 4.6437 79.9525 6.75518C77.5318 8.90697 76.4608 12.0033 76.4375 15.6748L80.4375 15.7002C80.4559 12.7884 81.2807 10.9264 82.61 9.74482C83.9846 8.52297 86.2348 7.7262 89.7098 7.68738L89.6652 3.68762ZM76.4375 15.6875V36.625H80.4375V15.6875H76.4375ZM76.4377 36.6502C76.484 40.3354 77.5649 43.4384 79.9838 45.5886C82.3616 47.7022 85.7087 48.6027 89.6763 48.625L89.6987 44.625C86.2497 44.6057 84.0134 43.8186 82.6412 42.5989C81.3101 41.4157 80.4743 39.5396 80.4373 36.5998L76.4377 36.6502ZM89.6875 48.625H95.625V44.625H89.6875V48.625ZM127.25 22.25L127.554 20.2733L127.403 20.25H127.25V22.25ZM128.125 23.125H130.125V23.0418L130.118 22.9589L128.125 23.125ZM128.125 38.25L130.102 38.5541L130.125 38.4029V38.25H128.125ZM127.25 39.125V41.125H127.333L127.416 41.1181L127.25 39.125ZM122 39.125L121.696 41.1017L121.847 41.125H122V39.125ZM121.125 38.25H119.125V38.3332L119.132 38.4161L121.125 38.25ZM121.125 23.125L119.148 22.8209L119.125 22.9721V23.125H121.125ZM122 22.25V20.25H121.917L121.834 20.2569L122 22.25ZM117.375 45.875L118.007 43.9776L118.001 43.9753L117.994 43.9731L117.375 45.875ZM136.375 41.75L138.242 42.468L138.247 42.4533L138.253 42.4385L136.375 41.75ZM131.875 15.5L131.226 17.3919L131.241 17.397L131.256 17.4019L131.875 15.5ZM112.875 19.625L111.008 18.907L111.003 18.9217L110.997 18.9365L112.875 19.625ZM126.946 24.2267C126.933 24.2248 126.701 24.1855 126.461 23.9455C126.204 23.6885 126.142 23.4064 126.132 23.2911L130.118 22.9589C130.067 22.3436 129.838 21.6656 129.289 21.117C128.757 20.5853 128.108 20.3585 127.554 20.2733L126.946 24.2267ZM126.125 23.125V38.25H130.125V23.125H126.125ZM126.148 37.9459C126.15 37.9333 126.189 37.7009 126.43 37.4608C126.686 37.2039 126.969 37.1415 127.084 37.1319L127.416 41.1181C128.031 41.0668 128.709 40.8378 129.258 40.2892C129.79 39.7575 130.016 39.1084 130.102 38.5541L126.148 37.9459ZM127.25 37.125H122V41.125H127.25V37.125ZM122.304 37.1483C122.317 37.1502 122.549 37.1895 122.789 37.4295C123.046 37.6865 123.108 37.9686 123.118 38.0839L119.132 38.4161C119.183 39.0314 119.412 39.7094 119.961 40.258C120.493 40.7897 121.142 41.0165 121.696 41.1017L122.304 37.1483ZM123.125 38.25V23.125H119.125V38.25H123.125ZM123.102 23.4291C123.1 23.4417 123.061 23.6741 122.82 23.9142C122.564 24.1711 122.281 24.2335 122.166 24.2431L121.834 20.2569C121.219 20.3082 120.541 20.5372 119.992 21.0858C119.46 21.6175 119.234 22.2666 119.148 22.8209L123.102 23.4291ZM122 24.25H127.25V20.25H122V24.25ZM110.188 37.25C110.188 39.7939 110.661 42.0607 111.77 43.9058C112.905 45.7921 114.611 47.0789 116.756 47.7769L117.994 43.9731C116.681 43.5461 115.793 42.8329 115.198 41.8442C114.579 40.8143 114.188 39.3311 114.188 37.25H110.188ZM116.743 47.7724C118.503 48.3592 120.542 48.625 122.812 48.625V44.625C120.833 44.625 119.247 44.3908 118.007 43.9776L116.743 47.7724ZM122.812 48.625H126.438V44.625H122.812V48.625ZM126.438 48.625C132.12 48.625 136.544 46.8822 138.242 42.468L134.508 41.032C133.706 43.1178 131.505 44.625 126.438 44.625V48.625ZM138.253 42.4385C138.813 40.9108 139.062 39.1652 139.062 37.25H135.062C135.062 38.8348 134.854 40.0892 134.497 41.0615L138.253 42.4385ZM139.062 37.25V24.125H135.062V37.25H139.062ZM139.062 24.125C139.062 21.5811 138.589 19.3143 137.48 17.4692C136.345 15.5829 134.639 14.2961 132.494 13.5981L131.256 17.4019C132.569 17.8289 133.457 18.5421 134.052 19.5308C134.671 20.5607 135.062 22.0439 135.062 24.125H139.062ZM132.524 13.6081C130.791 13.014 128.743 12.75 126.438 12.75V16.75C128.466 16.75 130.043 16.986 131.226 17.3919L132.524 13.6081ZM126.438 12.75H122.812V16.75H126.438V12.75ZM122.812 12.75C117.13 12.75 112.706 14.4928 111.008 18.907L114.742 20.343C115.544 18.2572 117.745 16.75 122.812 16.75V12.75ZM110.997 18.9365C110.437 20.4642 110.188 22.2098 110.188 24.125H114.188C114.188 22.5402 114.396 21.2858 114.753 20.3135L110.997 18.9365ZM110.188 24.125V37.25H114.188V24.125H110.188Z" fill="#30CB7E"/>
<path d="M32.125 50C32.6667 50.0833 32.9583 50.375 33 50.875V73.4375C32.9167 73.9792 32.625 74.2708 32.125 74.3125H22.3125V50H32.125ZM13.0625 82L30.8125 82.3125C37.6042 82.4375 41.3958 79.8333 42.1875 74.5C42.3125 73.7083 42.375 72.875 42.375 72V52.3125C42.375 46.2708 39.5833 42.8958 34 42.1875C33 42.0625 31.9375 42 30.8125 42L13.0625 42.3125V82ZM63.6875 50.75C60.0208 50.8333 57.9375 52.6667 57.4375 56.25L56.8125 51.375H48.75L48.875 82H57.75L57.625 59.4375C57.7083 58.8958 58 58.6042 58.5 58.5625H65.25V50.75H63.6875ZM90.5 82.375V74.875H77.25C76.7083 74.7917 76.4167 74.5 76.375 74V70.625H91.4375V59.5C91.4375 55.5417 90.3333 52.9792 88.125 51.8125C86.7083 51.1042 84.6875 50.75 82.0625 50.75H76.875C72.625 50.75 69.875 51.7917 68.625 53.875C67.875 55.2083 67.5 57.0833 67.5 59.5V73C67.5 77.625 69.2292 80.5 72.6875 81.625C74.1875 82.125 76 82.375 78.125 82.375H90.5ZM76.375 58.8125C76.4583 58.2708 76.75 57.9792 77.25 57.9375H81.8125C82.3542 58.0208 82.6458 58.3125 82.6875 58.8125V64.375H76.375V58.8125ZM110.25 75.4375H104.812C104.271 75.3542 103.979 75.0625 103.938 74.5625V70.5C104.021 69.9583 104.312 69.6667 104.812 69.625H110.25V75.4375ZM104.25 82.625C107.875 82.5417 109.938 80.7083 110.438 77.125L111.062 82H119.188V60.3125C119.188 55.9375 117.729 53.1667 114.812 52C113.438 51.5 111.667 51.25 109.5 51.25L97.4375 51.3125V58.8125L109.375 58.75C109.917 58.8333 110.208 59.125 110.25 59.625V63.375H104.562C100.229 63.375 97.4583 64.4375 96.25 66.5625C95.5417 67.8125 95.1875 69.5625 95.1875 71.8125V74.8125C95.1875 78.8125 96.625 81.25 99.5 82.125C100.583 82.4583 101.854 82.625 103.312 82.625H104.25ZM139.438 50.75C135.771 50.8333 133.688 52.6667 133.188 56.25L132.562 51.375H124.5L124.625 82H133.5L133.375 58.8125C133.458 58.2708 133.75 57.9792 134.25 57.9375H138.812C139.354 58.0208 139.646 58.3125 139.688 58.8125V82H148.562V58.8125C148.646 58.2708 148.938 57.9792 149.438 57.9375H153.875C154.417 58.0208 154.708 58.3125 154.75 58.8125V82H163.625V58.5625C163.625 54.5625 162.188 52.125 159.312 51.25C158.229 50.9167 156.958 50.75 155.5 50.75H154.625C151.042 50.8333 148.958 52.625 148.375 56.125C147.833 53.0833 145.917 51.3333 142.625 50.875C141.917 50.7917 141.188 50.75 140.438 50.75H139.438ZM191.125 82.375V74.875H177.875C177.333 74.7917 177.042 74.5 177 74V70.625H192.062V59.5C192.062 55.5417 190.958 52.9792 188.75 51.8125C187.333 51.1042 185.312 50.75 182.688 50.75H177.5C173.25 50.75 170.5 51.7917 169.25 53.875C168.5 55.2083 168.125 57.0833 168.125 59.5V73C168.125 77.625 169.854 80.5 173.312 81.625C174.812 82.125 176.625 82.375 178.75 82.375H191.125ZM177 58.8125C177.083 58.2708 177.375 57.9792 177.875 57.9375H182.438C182.979 58.0208 183.271 58.3125 183.312 58.8125V64.375H177V58.8125ZM212.125 50.75C208.458 50.8333 206.375 52.6667 205.875 56.25L205.25 51.375H197.188L197.312 82H206.188L206.062 59.4375C206.146 58.8958 206.438 58.6042 206.938 58.5625H213.688V50.75H212.125Z" fill="#30CB7E"/>
</svg>
